<svg width="32" height="32" viewBox="0 0 32 32" fill="none" xmlns="http://www.w3.org/2000/svg">
<path fill-rule="evenodd" clip-rule="evenodd" d="M23.6095 10.2762C24.1302 9.75547 24.1302 8.91125 23.6095 8.39055C23.0888 7.86986 22.2446 7.86986 21.7239 8.39055L16 14.1144L10.2761 8.39055C9.75544 7.86986 8.91122 7.86986 8.39052 8.39055C7.86983 8.91125 7.86983 9.75547 8.39052 10.2762L14.1144 16L8.39052 21.7239C7.86983 22.2446 7.86983 23.0888 8.39052 23.6095C8.91122 24.1302 9.75544 24.1302 10.2761 23.6095L16 17.8856L21.7239 23.6095C22.2446 24.1302 23.0888 24.1302 23.6095 23.6095C24.1302 23.0888 24.1302 22.2446 23.6095 21.7239L17.8856 16L23.6095 10.2762Z" fill="#8E90B9"/>
</svg>
