<svg width="200" height="200" viewBox="0 0 200 200" fill="none" xmlns="http://www.w3.org/2000/svg">
  <path d="M127.727 83.375H163.547C166.932 83.375 169.675 86.1183 169.675 89.5025V122.13C169.675 134.567 159.592 144.65 147.155 144.65H147.048C134.611 144.652 124.527 134.571 124.525 122.133C124.525 122.132 124.525 122.131 124.525 122.13V86.5774C124.525 84.8088 125.959 83.375 127.727 83.375Z" fill="#5059C9"/>
  <path d="M151.937 76.925C159.952 76.925 166.45 70.4275 166.45 62.4125C166.45 54.3974 159.952 47.9 151.937 47.9C143.922 47.9 137.425 54.3974 137.425 62.4125C137.425 70.4275 143.922 76.925 151.937 76.925Z" fill="#5059C9"/>
  <path d="M106.787 76.925C118.365 76.925 127.75 67.5398 127.75 55.9625C127.75 44.3852 118.365 35 106.787 35C95.2102 35 85.8249 44.3852 85.8249 55.9625C85.8249 67.5398 95.2102 76.925 106.787 76.925Z" fill="#7B83EB"/>
  <path d="M134.739 83.375H75.6114C72.2676 83.4577 69.6224 86.2328 69.7 89.5767V126.79C69.233 146.857 85.1089 163.509 105.175 164C125.241 163.509 141.117 146.857 140.65 126.79V89.5767C140.727 86.2328 138.082 83.4577 134.739 83.375Z" fill="#7B83EB"/>
  <path opacity="0.1" d="M108.4 83.375V135.523C108.384 137.915 106.935 140.063 104.723 140.973C104.019 141.271 103.263 141.425 102.498 141.425H72.538C72.1187 140.361 71.7317 139.296 71.4092 138.2C70.2803 134.499 69.7043 130.652 69.6999 126.783V89.567C69.6224 86.2284 72.2632 83.4577 75.6017 83.375H108.4Z" fill="black"/>
  <path opacity="0.2" d="M105.175 83.375V138.748C105.175 139.513 105.021 140.269 104.723 140.973C103.813 143.185 101.665 144.634 99.2732 144.65H74.0537C73.5055 143.586 72.9895 142.521 72.538 141.425C72.0864 140.328 71.7317 139.296 71.4092 138.2C70.2803 134.499 69.7043 130.652 69.6999 126.783V89.567C69.6224 86.2284 72.2632 83.4577 75.6017 83.375H105.175Z" fill="black"/>
  <path opacity="0.2" d="M105.175 83.375V132.298C105.15 135.547 102.522 138.175 99.2733 138.2H71.4093C70.2804 134.499 69.7043 130.652 69.7 126.783V89.567C69.6225 86.2284 72.2633 83.4577 75.6017 83.375H105.175Z" fill="black"/>
  <path opacity="0.2" d="M101.95 83.375V132.298C101.925 135.547 99.2975 138.175 96.0482 138.2H71.4093C70.2804 134.499 69.7043 130.652 69.7 126.783V89.567C69.6225 86.2284 72.2633 83.4577 75.6017 83.375H101.95Z" fill="black"/>
  <path opacity="0.1" d="M108.4 66.7017V76.8605C107.852 76.8927 107.336 76.925 106.787 76.925C106.239 76.925 105.723 76.8928 105.175 76.8605C104.086 76.7883 103.007 76.6155 101.95 76.3445C95.4193 74.7979 90.024 70.2179 87.4375 64.025C86.9924 62.9851 86.6469 61.9052 86.4054 60.8001H102.498C105.753 60.8124 108.388 63.4474 108.4 66.7017Z" fill="black"/>
  <path opacity="0.2" d="M105.175 69.9267V76.8605C104.086 76.7883 103.007 76.6156 101.95 76.3445C95.4194 74.798 90.024 70.2179 87.4375 64.0251H99.2732C102.528 64.0374 105.163 66.6725 105.175 69.9267Z" fill="black"/>
  <path opacity="0.2" d="M105.175 69.9267V76.8605C104.086 76.7883 103.007 76.6156 101.95 76.3445C95.4194 74.798 90.024 70.2179 87.4375 64.0251H99.2732C102.528 64.0374 105.163 66.6725 105.175 69.9267Z" fill="black"/>
  <path opacity="0.2" d="M101.95 69.9267V76.3445C95.4193 74.7979 90.0239 70.2179 87.4375 64.025H96.0482C99.3025 64.0374 101.938 66.6725 101.95 69.9267Z" fill="black"/>
  <path d="M36.9114 64.025H96.0385C99.3033 64.025 101.95 66.6717 101.95 69.9364V129.063C101.95 132.328 99.3032 134.975 96.0385 134.975H36.9114C33.6466 134.975 31 132.328 31 129.063V69.9364C31 66.6717 33.6467 64.025 36.9114 64.025Z" fill="url(#paint0_linear_4508_49)"/>
  <path d="M82.0324 86.529H70.2127V118.715H62.6824V86.529H50.9176V80.2854H82.0324V86.529Z" fill="white"/>
  <defs>
  <linearGradient id="paint0_linear_4508_49" x1="43.3254" y1="59.4059" x2="89.6245" y2="139.594" gradientUnits="userSpaceOnUse">
  <stop stop-color="#5A62C3"/>
  <stop offset="0.5" stop-color="#4D55BD"/>
  <stop offset="1" stop-color="#3940AB"/>
  </linearGradient>
  </defs>
  </svg>
  